#!OML:ASF F:\VICON\USERDATA\INSTALL\rory3\rory3.ASF
:FULLY-SPECIFIED
:DEGREES
462
root 0.703953 16.2794 -21.1092 -175.552 0.5982 -180.438
lowerback 2.20581 0.676042 -2.80762
upperback 0.552693 0.852895 0.57708
thorax -0.719259 0.435086 2.14178
lowerneck -13.0574 1.38981 0.278562
upperneck 32.0484 -1.76608 2.90268
head 12.8836 -1.32521 0.595745
rclavicle 1.80149e-015 7.95139e-015
rhumerus -320.075 43.2874 304.73
rradius 67.4789
rwrist -8.55899
rhand -9.15851 607.723
rfingers 7.12502
rthumb 16.7939 82.9835
lclavicle 1.80149e-015 7.95139e-015
lhumerus 48.1244 -52.2032 48.1154
lradius 92.3461
lwrist -69.2191
lhand -51.3438 -5.57697
lfingers 7.12502
lthumb -23.8784 22.9586
rfemur 115.509 -194.453 -170.607
rtibia 39.3146
rfoot -37.0581 -29.3554
rtoes 61.4825
lfemur -17.3733 -2.20725 -33.0037
ltibia 41.3958
lfoot -30.6142 26.6741
ltoes -7.65609
463
root 0.727032 16.1501 -21.2759 -174.569 0.240047 -180.666
lowerback 2.17048 0.746543 -3.03939
upperback -0.19846 0.92434 0.592539
thorax -1.47863 0.488717 2.28047
lowerneck -13.8386 1.23487 0.00230237
upperneck 32.8713 -2.07905 2.98591
head 13.4128 -1.49872 0.621867
rclavicle -2.55935e-015 -6.06293e-015
rhumerus -321.696 42.7765 305.173
rradius 66.11
rwrist 2.99345
rhand -16.755 606.964
rfingers 7.12502
rthumb 9.47176 83.2689
lclavicle -2.55935e-015 -6.06293e-015
lhumerus 44.9436 -51.3664 49.5658
lradius 90.1774
lwrist -84.384
lhand -55.8644 11.9616
lfingers 7.12502
lthumb -28.2066 39.859
rfemur 114.204 -194.425 -171.598
rtibia 39.2589
rfoot -37.7711 -27.8373
rtoes 61.9142
lfemur -17.7804 -2.609 -33.3317
ltibia 41.4417
lfoot -33.0539 26.4872
ltoes -4.56322
464
root 0.737958 16.0406 -21.4438 -173.859 -0.577521 -180.59
lowerback 0.343704 0.508156 -2.98068
upperback 0.591629 0.669065 0.776585
thorax 0.370366 0.319029 2.46722
lowerneck -14.7919 0.909773 -0.0638695
upperneck 32.0872 -2.18375 2.89899
head 13.2842 -1.45492 0.600676
rclavicle 1.0958e-014 4.37326e-015
rhumerus -320.327 40.8525 307.588
rradius 64.8371
rwrist 21.1799
rhand -27.8318 603.01
rfingers 7.12502
rthumb -1.22349 87.0142
lclavicle 1.0958e-014 4.37326e-015
lhumerus 46.5772 -50.4114 45.6633
lradius 88.9893
lwrist -91.0125
lhand -56.3935 22.7422
lfingers 7.12502
lthumb -28.7122 50.5551
rfemur 112.904 -195.699 -174.308
rtibia 39.1127
rfoot -39.5136 -27.6819
rtoes 61.6874
lfemur -17.7755 -3.32718 -33.3167
ltibia 41.4609
lfoot -35.5548 25.7519
ltoes -2.77248
465
root 0.74311 15.9395 -21.5976 -173.35 -1.63658 -180.74
lowerback 1.25118 0.365414 -2.77057
upperback -0.440738 0.447289 0.699078
thorax -1.18033 0.24665 2.26036
lowerneck -13.5707 0.699991 -0.0544034
upperneck 31.7039 -2.61321 3.12125
head 12.8726 -1.65897 0.620381
rclavicle 1.59028e-015 -3.18055e-015
rhumerus -322.771 40.5447 307.496
rradius 64.0482
rwrist 35.4239
rhand -34.7546 597.9
rfingers 7.12502
rthumb -7.90792 -92.2682
lclavicle 1.59028e-015 -3.18055e-015
lhumerus 45.974 -52.2972 43.2398
lradius 87.3695
lwrist -91.8034
lhand -57.9346 25.4444
lfingers 7.12502
lthumb -30.1835 52.9983
rfemur 113.08 -194.276 -173.949
rtibia 38.9665
rfoot -40.6202 -22.7657
rtoes 62.8082
lfemur -17.6775 -4.33542 -33.4766
ltibia 41.7374
lfoot -38.0868 24.5003
ltoes 0.286306
466
root 0.742663 15.881 -21.8175 -172.827 -2.60922 -181.638
lowerback -0.96171 0.0448407 -3.72718
upperback 0.560762 0.104784 0.724289
thorax 1.10719 0.0210214 2.83629
lowerneck -14.5276 0.496571 -0.036877
upperneck 30.9217 -2.48571 2.81371
head 12.7417 -1.53183 0.533714
rclavicle -8.69683e-016 3.97569e-016
rhumerus -321.92 39.2301 310.019
rradius 63.4798
rwrist 45.8269
rhand -37.9556 592.244
rfingers 7.12502
rthumb -10.9965 -98.0638
lclavicle -8.69683e-016 3.97569e-016
lhumerus 48.7791 -52.0909 38.0525
lradius 85.811
lwrist -90.0013
lhand -58.7327 23.9534
lfingers 7.12502
lthumb -30.9446 51.3655
rfemur 112.383 -195.095 -177.411
rtibia 38.9041
rfoot -40.1387 -26.1497
rtoes 61.9162
lfemur -17.2518 -5.29848 -34.444
ltibia 42.0144
lfoot -38.8123 24.4442
ltoes -0.238619
467
root 0.759466 15.8252 -21.9614 -172.323 -3.38487 -181.394
lowerback -0.261754 0.0391575 -3.32013
upperback -0.197319 0.0580711 0.804775
thorax -0.059778 0.0326732 2.68772
lowerneck -14.4169 0.413447 -0.0496317
upperneck 31.317 -2.70229 2.79486
head 12.8871 -1.65872 0.490179
rclavicle 2.98177e-015 -1.59028e-014
rhumerus -323.024 41.0451 312.344
rradius 62.2842
rwrist 38.461
rhand -34.1927 598.701
rfingers 7.12502
rthumb -7.36553 -91.447
lclavicle 2.98177e-015 -1.59028e-014
lhumerus 50.4305 -54.1517 33.1979
lradius 84.6811
lwrist -86.884
lhand -58.8657 19.2193
lfingers 7.12502
lthumb -31.0713 46.6071
rfemur 111.961 -195.629 -178.418
rtibia 39.153
rfoot -43.1016 -19.9174
rtoes 63.1542
lfemur -17.5254 -5.86112 -33.9944
ltibia 42.3969
lfoot -38.4903 24.7572
ltoes -1.99063
468
root 0.781213 15.7862 -22.1203 -171.699 -4.46727 -181.553
lowerback -0.944856 -0.224721 -3.75816
upperback 0.0587254 -0.264746 1.11548
thorax 0.612591 -0.146731 3.2508
lowerneck -15.011 0.057556 -0.231411
upperneck 30.9382 -3.02825 2.82761
head 12.8653 -1.7648 0.491104
rclavicle 2.09718e-014 8.74653e-015
rhumerus -322.026 42.43 316.53
rradius 61.2623
rwrist 30.7718
rhand -30.948 604.775
rfingers 7.12502
rthumb -4.23295 85.2872
lclavicle 2.09718e-014 8.74653e-015
lhumerus 53.2473 -54.6658 27.5387
lradius 83.7041
lwrist -83.2417
lhand -57.1126 14.0236
lfingers 7.12502
lthumb -29.399 41.718
rfemur 111.674 -195.919 -179.856
rtibia 39.4394
rfoot -46.3327 -16.5655
rtoes 63.0175
lfemur -17.8202 -6.30948 -33.8888
ltibia 42.8463
lfoot -37.8994 24.8864
ltoes -4.77236
469
root 0.761343 15.7675 -22.3545 -171.392 -5.44734 -183.151
lowerback -1.04497 -0.285774 -4.6977
upperback -0.22785 -0.336204 0.549382
thorax 0.382206 -0.174829 3.19508
lowerneck -15.1892 -0.301131 -0.585534
upperneck 31.2488 -3.71825 3.39715
head 13.0699 -2.04703 0.660248
rclavicle 1.77912e-014 7.95139e-015
rhumerus -324.099 43.484 317.872
rradius 60.0181
rwrist 26.6374
rhand -28.2099 609.301
rfingers 7.12502
rthumb -1.58867 80.7256
lclavicle 1.77912e-014 7.95139e-015
lhumerus 56.1593 -56.4522 21.6955
lradius 82.1915
lwrist -76.9298
lhand -55.5319 4.60558
lfingers 7.12502
lthumb -27.8888 32.555
rfemur 112.794 -193.131 -179.489
rtibia 39.8024
rfoot -43.0704 -19.6266
rtoes 62.8772
lfemur -16.9463 -6.68741 -35.6159
ltibia 43.2692
lfoot -38.1449 24.7805
ltoes -6.61501
470
root 0.789232 15.7406 -22.5236 -170.54 -6.10638 -183.275
lowerback -1.40602 -0.456342 -4.94494
upperback -0.984875 -0.572196 0.617721
thorax -0.170426 -0.269536 3.40204
lowerneck -13.4466 -0.219687 -0.256368
upperneck 30.8405 -3.74522 3.31536
head 12.5229 -2.10343 0.578127
rclavicle 1.36664e-014 3.97569e-015
rhumerus -325.439 46.2067 319.998
rradius 59.2186
rwrist 20.4298
rhand -27.8525 624.481
rfingers 7.12502
rthumb -1.24348 65.5425
lclavicle 1.36664e-014 3.97569e-015
lhumerus 58.0824 -58.2958 16.2058
lradius 80.7793
lwrist -69.9788
lhand -57.6708 -15.6411
lfingers 7.12502
lthumb -29.9318 11.9585
rfemur 112.191 -193.385 -180.365
rtibia 40.3827
rfoot -45.2817 -14.3269
rtoes 63.6543
lfemur -17.3151 -6.68822 -35.3822
ltibia 43.4345
lfoot -37.5211 24.5922
ltoes -9.03513
